HIERARCHY
ROOT Hips
{
  OFFSET 3.13124 94.3669 -3.18751
  CHANNELS  6 Xposition Yposition Zposition Zrotation Xrotation Yrotation
  JOINT LeftUpLeg
  {
    OFFSET 8.64259 1.95398 -2.38835
    CHANNELS 3 Zrotation Xrotation Yrotation
    JOINT LeftLeg
    {
      OFFSET 43.7702 0 0
      CHANNELS 3 Zrotation Xrotation Yrotation
      JOINT LeftFoot
      {
        OFFSET 40.6238 0 0
        CHANNELS 3 Zrotation Xrotation Yrotation
        JOINT LeftToeBase
        {
          OFFSET 12.7242 0 0
          CHANNELS 3 Zrotation Xrotation Yrotation
          End Site
          {
            OFFSET 0 0 0
          }
        }
      }
    }
  }
  JOINT RightUpLeg
  {
    OFFSET -8.2249 1.95398 -2.59336
    CHANNELS 3 Zrotation Xrotation Yrotation
    JOINT RightLeg
    {
      OFFSET 43.5653 0 0
      CHANNELS 3 Zrotation Xrotation Yrotation
      JOINT RightFoot
      {
        OFFSET 40.6238 0 0
        CHANNELS 3 Zrotation Xrotation Yrotation
        JOINT RightToeBase
        {
          OFFSET 12.7242 0 0
          CHANNELS 3 Zrotation Xrotation Yrotation
          End Site
          {
            OFFSET 0 0 0
          }
        }
      }
    }
  }
  JOINT Spine
  {
    OFFSET 0.165834 0.87714 6.61349
    CHANNELS 3 Zrotation Xrotation Yrotation
    JOINT Spine1
    {
      OFFSET 7.38962 1.71661e-005 0
      CHANNELS 3 Zrotation Xrotation Yrotation
      JOINT Spine2
      {
        OFFSET 11.9445 1.14441e-005 0
        CHANNELS 3 Zrotation Xrotation Yrotation
        JOINT Spine3
        {
          OFFSET 14.7254 4.19617e-005 0
          CHANNELS 3 Zrotation Xrotation Yrotation
          JOINT Spine4
          {
            OFFSET 10.9679 0 0
            CHANNELS 3 Zrotation Xrotation Yrotation
            JOINT RightShoulder
            {
              OFFSET 2.46616 -1.6653 3.69651
              CHANNELS 3 Zrotation Xrotation Yrotation
              JOINT RightArm
              {
                OFFSET 13.0012 0 0
                CHANNELS 3 Zrotation Xrotation Yrotation
                JOINT RightForeArm
                {
                  OFFSET 28.7848 1.52588e-005 0
                  CHANNELS 3 Zrotation Xrotation Yrotation
                  JOINT RightHand
                  {
                    OFFSET 26.5688 1.52588e-005 0
                    CHANNELS 3 Zrotation Xrotation Yrotation
                    End Site
                    {
                      OFFSET 0 0 0
                    }
                  }
                }
              }
            }
            JOINT LeftShoulder
            {
              OFFSET 2.38034 -1.29275 -3.75231
              CHANNELS 3 Zrotation Xrotation Yrotation
              JOINT LeftArm
              {
                OFFSET 16.3182 6.10352e-005 0
                CHANNELS 3 Zrotation Xrotation Yrotation
                JOINT LeftForeArm
                {
                  OFFSET 27.0901 0 0
                  CHANNELS 3 Zrotation Xrotation Yrotation
                  JOINT LeftHand
                  {
                    OFFSET 24.5451 1.52588e-005 0
                    CHANNELS 3 Zrotation Xrotation Yrotation
                    End Site
                    {
                      OFFSET 0 0 0
                    }
                  }
                }
              }
            }
            JOINT Neck
            {
              OFFSET 5.0226 -0.0266342 0
              CHANNELS 3 Zrotation Xrotation Yrotation
              JOINT Head
              {
                OFFSET 6.69363 2.86102e-005 0
                CHANNELS 3 Zrotation Xrotation Yrotation
                End Site
                {
                  OFFSET 0 0 0
                }
              }
            }
          }
        }
      }
    }
  }
}
MOTION
Frames:	5
Frame Time:	0.0333333
1.88849 97.0417 -20.2145 65.4452 -89.9938 65.5665 -171.275 2.82456 89.6075 -9.68815 8.2662 3.65903 63.7715 0.363347 0.1479 28.7808 5.32353e-006 5.76103e-006 -179.705 1.98471 90.7973 -7.78544 0.468894 0.0263949 62.8485 -1.12255 -0.562323 28.7808 1.32444e-005 1.96498e-005 0.00960785 6.34061 -90.1208 14.1934 0.0133335 1.03976e-006 2.52252 0.0149174 -1.29539e-006 -20.0127 0.00180091 5.74318e-006 -1.59028e-015 0.0018027 1.55301e-018 100.886 -19.0587 -85.3109 5.59166 44.3826 -32.4031 -2.31185 0.588199 -0.528375 -5.37983 -0.320017 -0.0162405 -79.0812 -22.2039 94.1336 6.75835 -43.8201 -17.8625 11.4696 44.7425 -13.7369 -4.12218 -0.170216 0.844347 1.76588 -1.3776e-005 -0.00212832 -7.41497 0.000615268 0.0037424 
1.88307 97.0629 -20.2048 40.3942 -89.946 40.5341 -171.262 2.87589 89.6294 -9.70619 8.32636 3.67295 63.7096 0.253867 0.0837229 28.7808 5.32353e-006 5.76103e-006 -179.647 0.963855 90.7829 -5.62308 0.563481 0.0263953 62.0074 -0.902146 -0.420745 28.7808 1.32444e-005 1.96498e-005 0.00986452 6.34057 -90.1231 14.1934 0.0133335 1.03976e-006 2.52252 0.0149174 -1.29539e-006 -20.0127 0.00180091 5.74318e-006 3.18055e-015 0.0018027 1.55301e-018 100.926 -19.0612 -85.282 5.58395 44.3641 -32.3959 -2.29149 0.588195 -0.559963 -5.37983 -0.320017 -0.0162405 -79.0161 -22.1778 94.2122 6.66608 -43.8165 -17.9849 11.5726 44.8167 -13.8064 -4.35569 -0.181882 0.904513 1.9516 0.00166489 -0.0324796 -7.47518 0.0106899 0.0593697 
1.89226 97.0742 -20.1796 55.9046 -89.9436 56.0448 -171.274 2.80043 89.6273 -9.60074 8.32184 3.66294 63.6653 0.300277 0.110834 28.7808 5.32353e-006 5.76103e-006 -179.662 1.05379 90.7935 -5.85582 0.555536 0.0263511 61.9935 -1.05481 -0.508481 28.7808 1.32444e-005 1.96498e-005 0.0113506 6.34017 -90.1424 14.1934 0.0133335 1.03976e-006 2.52252 0.0149174 -1.29539e-006 -20.0127 0.00180091 5.74318e-006 -1.59028e-015 0.0018027 3.10601e-018 100.921 -19.0348 -85.3003 5.57351 44.3592 -32.4066 -2.28571 0.588198 -0.538898 -5.37983 -0.320017 -0.0162405 -79.0099 -22.177 94.2252 6.65733 -43.8142 -17.9697 11.4912 44.7332 -13.7354 -4.21713 -0.17533 0.894554 2.01133 0.032769 -0.00520791 -7.46738 0.0267846 0.0465881 
1.89268 97.0587 -20.1609 47.4895 -89.9204 47.6371 -171.262 2.81042 89.638 -9.60256 8.31756 3.65085 63.7284 0.26249 0.0908819 28.7808 5.32353e-006 5.76103e-006 -179.655 1.03151 90.7984 -5.80165 0.585918 0.0245782 62.0771 -0.978817 -0.465567 28.7808 1.32444e-005 1.96498e-005 0.0111419 6.3403 -90.1395 14.1934 0.0133335 -4.05564e-005 2.52243 0.0149174 -4.27223e-005 -20.0127 0.00180091 -3.47254e-005 -8.41706e-005 0.0018027 -4.04571e-005 100.946 -19.014 -85.2813 5.60393 44.3385 -32.435 -2.27844 0.588197 -0.547765 -5.37983 -0.320017 -0.0162405 -78.9683 -22.2039 94.2762 6.66934 -43.8283 -17.9784 11.4819 44.6537 -13.7436 -4.25301 -0.177406 0.932467 2.15336 0.0445317 0.0506437 -7.52212 0.0497357 -0.0259888 
1.90661 97.0686 -20.1431 45.1228 -89.8612 45.2657 -171.296 2.79913 89.6179 -9.50781 8.37583 3.66834 63.6795 0.308291 0.117508 28.7808 5.32353e-006 5.76103e-006 -179.672 1.15542 90.7942 -5.98225 0.607581 0.0218657 62.0358 -1.11743 -0.544538 28.7808 1.32444e-005 1.96498e-005 0.012753 6.33939 -90.1588 14.1952 0.0133335 0.000865061 2.52424 0.0149174 0.000858149 -20.0109 0.00180091 0.000849921 0.00173464 0.0018027 0.000844098 100.99 -19.0138 -85.2484 5.59972 44.3511 -32.4689 -2.28072 0.588197 -0.546302 -5.37983 -0.320017 -0.0162405 -78.9292 -22.2112 94.2918 6.59927 -43.8152 -17.9995 11.4679 44.6236 -13.7333 -4.14729 -0.183034 0.995405 2.25517 0.0266245 -0.00913742 -7.52548 0.0452445 0.0406024 
